<svg id="Capa_1" data-name="Capa 1" xmlns="http://www.w3.org/2000/svg" viewBox="0 0 327 36"><defs><style>.cls-1{fill:#0071bc;}.cls-2{fill:#fff;}</style></defs><title>NEXOS2022-DISEÑO-INDUSTRIAL-EL SALVADOR</title><rect class="cls-1" x="289.35" y="12.58" width="29" height="5.67"/><rect class="cls-1" x="289.35" y="23.91" width="29" height="5.67"/><rect class="cls-2" x="289.35" y="18.24" width="29" height="5.67"/><path d="M19.94,17.88l-.28,1.64h2.18l-.35,2.27h-2.2l-.52,3.09H16.42l.52-3.09H15l-.51,3.09H12.18l.51-3.09H10.51l.37-2.27h2.18l.29-1.64h-2.2l.37-2.27h2.2l.52-3.09h2.35l-.52,3.09H18l.51-3.09h2.35l-.51,3.09h2.16l-.37,2.27Zm-2.34,0H15.7l-.29,1.64h1.9Z"/><path d="M27.42,11.49V25.91H24.13V11.49Z"/><path d="M33.7,18.58v3.64c0,.89.77,1,2.13.89v2.8c-4,.41-5.22-.8-5.22-3.69V18.58H29v-3h1.64v-2l3.09-.92v2.88h2.13v3Z"/><path d="M37.06,14.37l1.65-2.88,3.28,0-2,2.86Z"/><path d="M52,22.82c0,2.37-2.06,3.38-4.28,3.38a4.51,4.51,0,0,1-4.43-2.45l2.68-1.53a1.68,1.68,0,0,0,1.75,1.22c.74,0,1.11-.23,1.11-.64,0-1.13-5.07-.54-5.07-4.1,0-2.25,1.9-3.38,4-3.38a4.51,4.51,0,0,1,4,2.21L49.13,19A1.49,1.49,0,0,0,47.75,18c-.54,0-.86.21-.86.58C46.89,19.79,52,19,52,22.82Z"/><path d="M62.66,18.58v3.64c0,.89.76,1,2.12.89v2.8c-4,.41-5.21-.8-5.21-3.69V18.58H57.93v-3h1.64v-2l3.09-.92v2.88h2.12v3Z"/><path d="M66.23,12.85a1.85,1.85,0,1,1,1.85,1.85A1.87,1.87,0,0,1,66.23,12.85Zm.3,2.76h3.09v10.3H66.53Z"/><path d="M87.34,19.59v6.32H84.25V19.85c0-1-.49-1.69-1.48-1.69s-1.61.73-1.61,1.94v5.81H78.07V19.85c0-1-.49-1.69-1.48-1.69S75,18.89,75,20.1v5.81H71.89V15.61H75v.95a3.16,3.16,0,0,1,2.76-1.24,3.08,3.08,0,0,1,2.7,1.36,3.4,3.4,0,0,1,3-1.36C85.79,15.32,87.34,17,87.34,19.59Z"/><path d="M94.69,23.44a2.66,2.66,0,0,0,2-.79l2.47,1.43a5.22,5.22,0,0,1-4.49,2.12,5.32,5.32,0,0,1-5.71-5.44,5.29,5.29,0,0,1,5.48-5.44,5.21,5.21,0,0,1,5.24,5.44A5.61,5.61,0,0,1,99.53,22H92.22A2.34,2.34,0,0,0,94.69,23.44Zm1.9-3.75a2.32,2.32,0,0,0-4.43,0Z"/><path d="M102.85,28.79h-2.47l.82-6.07h3.3Z"/><path d="M115.62,18.58v3.64c0,.89.76,1,2.12.89v2.8c-4,.41-5.21-.8-5.21-3.69V18.58h-1.65v-3h1.65v-2l3.09-.92v2.88h2.12v3Z"/><path d="M118.77,20.76a5.46,5.46,0,1,1,5.46,5.44A5.4,5.4,0,0,1,118.77,20.76Zm7.83,0a2.37,2.37,0,1,0-4.74,0,2.37,2.37,0,1,0,4.74,0Z"/><path d="M152,19.59v6.32H149V19.85c0-1-.5-1.69-1.49-1.69s-1.6.73-1.6,1.94v5.81h-3.09V19.85c0-1-.5-1.69-1.49-1.69s-1.6.73-1.6,1.94v5.81h-3.09V15.61h3.09v.95a3.16,3.16,0,0,1,2.76-1.24,3.09,3.09,0,0,1,2.7,1.36,3.38,3.38,0,0,1,3-1.36C150.49,15.32,152,17,152,19.59Z"/><path d="M164.72,15.61v10.3h-3.09v-1a3.88,3.88,0,0,1-3.07,1.26,5.18,5.18,0,0,1-4.92-5.44,5.18,5.18,0,0,1,4.92-5.44,3.88,3.88,0,0,1,3.07,1.26v-1Zm-3.09,5.15a2.45,2.45,0,1,0-4.9,0,2.45,2.45,0,1,0,4.9,0Z"/><path d="M173.37,25.91l-3.29-4.55v4.55H167V11.49h3.09v8.63l3.09-4.51h3.6L173,20.76l3.86,5.15Z"/><path d="M182.62,23.44a2.66,2.66,0,0,0,2-.79l2.47,1.43a5.22,5.22,0,0,1-4.49,2.12,5.32,5.32,0,0,1-5.71-5.44,5.29,5.29,0,0,1,5.48-5.44,5.21,5.21,0,0,1,5.24,5.44,5.61,5.61,0,0,1-.13,1.24h-7.31A2.34,2.34,0,0,0,182.62,23.44Zm1.9-3.75a2.32,2.32,0,0,0-4.43,0Z"/><polygon points="205.82 28.3 197.78 17.75 197.78 28.3 194.18 28.3 194.18 11.7 197.54 11.7 205.32 21.92 205.32 11.7 208.92 11.7 208.92 28.3 205.82 28.3"/><polygon points="212.91 28.3 212.91 11.7 225.4 11.7 225.4 14.95 216.51 14.95 216.51 18.32 224.33 18.32 224.33 21.56 216.51 21.56 216.51 25.05 225.52 25.05 225.52 28.3 212.91 28.3"/><path d="M262.38,23a8.51,8.51,0,0,1-1.83,2.73,8.71,8.71,0,0,1-2.8,1.85,9.17,9.17,0,0,1-3.55.68,9.07,9.07,0,0,1-3.53-.68,8.88,8.88,0,0,1-2.78-1.82,8,8,0,0,1-1.83-2.71,8.56,8.56,0,0,1-.65-3.33v-.05a8.46,8.46,0,0,1,.66-3.33,8.6,8.6,0,0,1,1.84-2.72,8.34,8.34,0,0,1,2.8-1.85,9.53,9.53,0,0,1,7.07,0,8.81,8.81,0,0,1,2.79,1.82,8.14,8.14,0,0,1,1.82,2.71,8.39,8.39,0,0,1,.66,3.33v0a8.22,8.22,0,0,1-.67,3.33m-3.15-3.33a5.4,5.4,0,0,0-.37-2,4.91,4.91,0,0,0-1-1.66,5.1,5.1,0,0,0-1.6-1.13,5,5,0,0,0-2-.41,4.89,4.89,0,0,0-2,.4A4.65,4.65,0,0,0,250.61,16a5.4,5.4,0,0,0-1,1.64,5.6,5.6,0,0,0-.37,2v0a5.62,5.62,0,0,0,.37,2,5.21,5.21,0,0,0,1,1.66,5,5,0,0,0,1.58,1.12,4.82,4.82,0,0,0,2,.42,5,5,0,0,0,2-.4,4.55,4.55,0,0,0,1.57-1.12,5,5,0,0,0,1-1.65,5.31,5.31,0,0,0,.37-2Z"/><path d="M277.84,25.58a4.49,4.49,0,0,1-1.24,1.61,5.65,5.65,0,0,1-1.92,1,8.27,8.27,0,0,1-2.46.34,10.88,10.88,0,0,1-3.72-.65,9.8,9.8,0,0,1-3.32-2l2.16-2.59a10.52,10.52,0,0,0,2.33,1.47,6.15,6.15,0,0,0,2.62.55,3.17,3.17,0,0,0,1.77-.42,1.3,1.3,0,0,0,.63-1.15v0a1.54,1.54,0,0,0-.13-.63,1.41,1.41,0,0,0-.5-.51,5.48,5.48,0,0,0-1-.48c-.44-.15-1-.32-1.7-.49a22.55,22.55,0,0,1-2.29-.69,6.31,6.31,0,0,1-1.73-.94,3.73,3.73,0,0,1-1.11-1.38,4.87,4.87,0,0,1-.39-2.07v0a4.81,4.81,0,0,1,.42-2,4.74,4.74,0,0,1,1.19-1.58,5.42,5.42,0,0,1,1.83-1,7.29,7.29,0,0,1,2.35-.36A10,10,0,0,1,275,12a9.57,9.57,0,0,1,2.81,1.56l-1.9,2.75a12.11,12.11,0,0,0-2.18-1.19,5.42,5.42,0,0,0-2.13-.44,2.62,2.62,0,0,0-1.6.41,1.26,1.26,0,0,0-.54,1v.05a1.54,1.54,0,0,0,.16.7,1.31,1.31,0,0,0,.56.53,5.16,5.16,0,0,0,1.1.45c.47.15,1.06.31,1.77.5a16.45,16.45,0,0,1,2.25.75,6.2,6.2,0,0,1,1.66,1,3.67,3.67,0,0,1,1,1.36,4.59,4.59,0,0,1,.34,1.87v.05a5.1,5.1,0,0,1-.45,2.19"/><polygon points="233.81 14.43 232.04 11.7 227.77 11.7 231.62 17.36 233.81 14.43"/><polygon points="237.63 19.81 243.18 11.7 239.03 11.7 235.52 17.08 235.52 17.07 232.57 20.95 227.53 28.3 231.68 28.3 235.43 22.61 239.15 28.3 243.42 28.3 237.63 19.81"/></svg>