<svg id="Capa_1" data-name="Capa 1" xmlns="http://www.w3.org/2000/svg" viewBox="0 0 69.27 69.27"><defs><style>.cls-1{fill:currentColor;}</style></defs><title>THEBUNDPROJECT-NEXOS2022-ICONOLINDEK</title><path class="cls-1" d="M3,41.26V15.4c0-5.25,3.42-8.66,8.66-8.66H63.56c5.25,0,8.66,3.41,8.66,8.66V67.34c0,5.24-3.41,8.66-8.66,8.66H11.62C6.38,76,3,72.58,3,67.33ZM37.59,12.15h-26c-2.24,0-3.24,1-3.25,3.22V67.31c0,2.29,1,3.27,3.31,3.27H63.51c2.3,0,3.3-1,3.3-3.28V15.48c0-2.37-1-3.33-3.36-3.33Z" transform="translate(-2.96 -6.73)"/><path class="cls-1" d="M30.63,33.39h9.06v3.94c.25-.22.37-.28.43-.38a9,9,0,0,1,6.79-4,19.86,19.86,0,0,1,6.1.41c3.69.85,5.69,3.53,6.39,7.12a36.07,36.07,0,0,1,.66,6.22c.09,5.41,0,10.82,0,16.23,0,.28,0,.56-.06.89H50.74V62.73c0-4.47,0-8.94,0-13.41a26.53,26.53,0,0,0-.31-4.09C50,42.4,48.49,41.05,46,40.94c-2.86-.13-5,1.21-5.66,3.83a16.66,16.66,0,0,0-.53,4c-.06,4.61,0,9.23,0,13.84v1.21H30.63Z" transform="translate(-2.96 -6.73)"/><path class="cls-1" d="M24.53,63.87H15.16V33.42h9.37Z" transform="translate(-2.96 -6.73)"/><path class="cls-1" d="M25.51,23.64A5.56,5.56,0,0,1,20,29.23a5.69,5.69,0,0,1-5.55-5.63A5.59,5.59,0,0,1,20,18.11,5.47,5.47,0,0,1,25.51,23.64Z" transform="translate(-2.96 -6.73)"/></svg>