<svg id="Capa_1" data-name="Capa 1" xmlns="http://www.w3.org/2000/svg" viewBox="0 0 346 1151"><defs><style>.cls-1{fill:#ef534a;}</style></defs><title>THEBUNDPROJECT-NEXOS2022-TRAMA</title><path class="cls-1" d="M244.07,35.62l68.76,68.76V89l-69.62,69.62a11,11,0,0,0,0,15.38l69.19,69.2V227.8Q278.25,262,244.07,296.14a11,11,0,0,0,0,15.39L312,379.44V364.05l-69.2,69.19a11.06,11.06,0,0,0,0,15.39l67.9,67.9V501.15l-67.9,67.9c-9.92,9.91,5.46,25.3,15.39,15.39l67.9-67.91a11,11,0,0,0,0-15.38q-34-33.94-67.9-67.91v15.39l69.19-69.19a11,11,0,0,0,0-15.39l-67.91-67.91v15.39l68.34-68.33a11.07,11.07,0,0,0,0-15.4L258.6,158.62V174l69.62-69.62a11,11,0,0,0,0-15.38L259.45,20.24c-9.91-9.92-25.3,5.46-15.38,15.38"/><path class="cls-1" d="M135.77,35.62l68.76,68.76V89l-69.62,69.62a11,11,0,0,0,0,15.38l69.19,69.2V227.8l-68.33,68.34a11,11,0,0,0,0,15.39l67.91,67.91V364.05l-69.2,69.19a11.06,11.06,0,0,0,0,15.39l67.9,67.9V501.15l-67.9,67.9c-9.92,9.91,5.46,25.3,15.38,15.39l67.9-67.91a11,11,0,0,0,0-15.38l-67.9-67.91v15.39l69.2-69.19a11.06,11.06,0,0,0,0-15.39l-67.91-67.91v15.39l68.33-68.33a11.05,11.05,0,0,0,0-15.4L150.3,158.62V174l69.62-69.62a11,11,0,0,0,0-15.38L151.15,20.24c-9.92-9.92-25.3,5.46-15.38,15.38"/><path class="cls-1" d="M27.46,35.62l68.77,68.76V89q-34.82,34.82-69.62,69.62a11,11,0,0,0,0,15.38l69.18,69.2V227.8Q61.63,262,27.46,296.14a11.06,11.06,0,0,0,0,15.39l67.91,67.91V364.05l-69.2,69.19a11.06,11.06,0,0,0,0,15.39l67.91,67.9V501.15q-34,33.95-67.91,67.9c-9.91,9.91,5.47,25.3,15.38,15.39l67.91-67.91a11,11,0,0,0,0-15.38l-67.9-67.91v15.39l69.19-69.19a11,11,0,0,0,0-15.39l-67.9-67.91v15.39l68.33-68.33a11.05,11.05,0,0,0,0-15.4L42,158.62V174l69.62-69.62a11,11,0,0,0,0-15.38L42.85,20.24c-9.92-9.92-25.31,5.46-15.39,15.38"/><path class="cls-1" d="M244.07,584l68.76,68.77V637.39L243.21,707a11,11,0,0,0,0,15.38l69.19,69.19V776.2l-68.33,68.34a11,11,0,0,0,0,15.38q33.94,34,67.91,67.91V912.45l-69.2,69.19a11.06,11.06,0,0,0,0,15.39l67.9,67.89v-15.38l-67.9,67.91c-9.92,9.91,5.46,25.3,15.39,15.38l67.9-67.91a11,11,0,0,0,0-15.38l-67.9-67.9V997l69.19-69.2a11,11,0,0,0,0-15.38l-67.91-67.91v15.38l68.34-68.33a11.06,11.06,0,0,0,0-15.39L258.6,707V722.4l69.62-69.62a11.06,11.06,0,0,0,0-15.39l-68.77-68.76c-9.91-9.91-25.3,5.46-15.38,15.38"/><path class="cls-1" d="M135.77,584l68.76,68.77V637.39L134.91,707a11,11,0,0,0,0,15.38l69.19,69.19V776.2l-68.33,68.34a11,11,0,0,0,0,15.38l67.91,67.91V912.45l-69.2,69.19a11.06,11.06,0,0,0,0,15.39l67.9,67.89v-15.38l-67.9,67.91c-9.92,9.91,5.46,25.3,15.38,15.38q34-33.94,67.9-67.91a11,11,0,0,0,0-15.38l-67.9-67.9V997l69.2-69.2a11,11,0,0,0,0-15.38q-33.94-34-67.91-67.91v15.38l68.33-68.33a11,11,0,0,0,0-15.39L150.3,707V722.4l69.62-69.62a11.06,11.06,0,0,0,0-15.39l-68.77-68.76c-9.92-9.91-25.3,5.46-15.38,15.38"/><path class="cls-1" d="M27.46,584l68.77,68.77V637.39L26.61,707a11,11,0,0,0,0,15.38l69.18,69.19V776.2L27.46,844.54a11,11,0,0,0,0,15.38l67.91,67.91V912.45l-69.2,69.19a11.06,11.06,0,0,0,0,15.39l67.91,67.89v-15.38l-67.91,67.91c-9.91,9.91,5.47,25.3,15.38,15.38q34-33.94,67.91-67.91a11,11,0,0,0,0-15.38l-67.9-67.9V997l69.19-69.2a11,11,0,0,0,0-15.38l-67.9-67.91v15.38l68.33-68.33a11,11,0,0,0,0-15.39Q76.59,741.61,42,707V722.4l69.62-69.62a11.06,11.06,0,0,0,0-15.39L42.85,568.63c-9.92-9.91-25.31,5.46-15.39,15.38"/></svg>