<svg id="Capa_1" data-name="Capa 1" xmlns="http://www.w3.org/2000/svg" xmlns:xlink="http://www.w3.org/1999/xlink" viewBox="0 0 427 784"><defs><style>.cls-1{fill:none;}.cls-2{clip-path:url(#clip-path);}.cls-3{fill:#ef534a;}</style><clipPath id="clip-path"><rect class="cls-1" x="-226.1" y="-17.37" width="640" height="941"/></clipPath></defs><title>THEBUNDPROJECT-NEXOS2022-TRAMA3</title><g class="cls-2"><path class="cls-3" d="M397.72,21.75V77.5l-1.62-.09c-.5,0-1,0-1.46,0-173.86,0-315.31,141.44-315.31,315.3S220.78,708,394.64,708c.49,0,1,0,1.45,0l1.63-.09v55.77l-1.47.08c-.55,0-1.06,0-1.61,0C190,763.76,23.57,597.3,23.57,392.69S190,21.63,394.64,21.63c.55,0,1.07,0,1.62,0Zm-3.08,52.56V24.71c-202.91,0-368,165.08-368,368s165.08,368,368,368v-49.6c-175.56,0-318.39-142.83-318.39-318.39S219.08,74.31,394.64,74.31Z"/><path class="cls-3" d="M397.72,134v56.5l-1.64-.1c-.46,0-.95,0-1.44,0-111.57,0-202.34,90.77-202.34,202.33S283.07,595,394.64,595c.49,0,1,0,1.44,0l1.64-.1v56.5l-1.45.09c-.55,0-1.08,0-1.63,0-142.73,0-258.84-116.11-258.84-258.84S251.91,133.86,394.64,133.86c.55,0,1.07,0,1.62,0Zm-3.08,53.3V136.94c-141,0-255.76,114.73-255.76,255.75S253.61,648.45,394.64,648.45V598.11c-113.27,0-205.42-92.15-205.42-205.42S281.37,187.28,394.64,187.28Z"/><path class="cls-3" d="M397.72,76.49v58.9l-1.65-.12c-.49,0-.95,0-1.43,0-142,0-257.46,115.49-257.46,257.45s115.5,257.46,257.46,257.46c.48,0,.94,0,1.43,0l1.65-.11v58.91l-1.47.07c-.55,0-1.06,0-1.61,0C220.21,709,78.31,567.11,78.31,392.69S220.21,76.37,394.64,76.37c.55,0,1.07,0,1.62,0Zm-3.08,55.67V79.45C221.91,79.45,81.39,220,81.39,392.69S221.91,705.93,394.64,705.93v-52.7C251,653.23,134.1,536.35,134.1,392.69S251,132.16,394.64,132.16Z"/><path class="cls-3" d="M397.72,239.37v68.19l-1.62-.08c-.5,0-1,0-1.46,0a85.24,85.24,0,1,0,0,170.48c.49,0,1,0,1.46,0l1.62-.09V546l-1.46.09c-.55,0-1.07,0-1.62,0-84.61,0-153.45-68.84-153.45-153.45S310,239.25,394.64,239.25c.55,0,1.07,0,1.62,0Zm-3.08,65v-62c-82.92,0-150.37,67.45-150.37,150.36s67.45,150.37,150.37,150.37V481a88.32,88.32,0,1,1,0-176.64Z"/><path class="cls-3" d="M397.72,188.72v52.72l-1.64-.1c-.49,0-.95,0-1.44,0-83.48,0-151.39,67.91-151.39,151.38s67.91,151.39,151.39,151.39c.49,0,1,0,1.45,0l1.63-.09v52.7l-1.45.09c-.55,0-1.08,0-1.63,0-112.54,0-204.1-91.56-204.1-204.1S282.1,188.6,394.64,188.6c.55,0,1.07,0,1.62,0Zm-3.08,49.51V191.68c-110.84,0-201,90.18-201,201s90.18,201,201,201V547.16c-85.18,0-154.47-69.29-154.47-154.47S309.46,238.23,394.64,238.23Z"/><path class="cls-3" d="M405,322.13a71.3,71.3,0,1,1-71.3,71.3,71.3,71.3,0,0,1,71.3-71.3"/></g></svg>