<svg id="Capa_1" data-name="Capa 1" xmlns="http://www.w3.org/2000/svg" viewBox="0 0 486 156"><defs><style>.cls-1,.cls-2,.cls-4{font-size:34.56px;}.cls-1,.cls-4,.cls-7{fill:#fff;}.cls-1{font-family:Montserrat-Medium, Montserrat;font-weight:500;}.cls-2,.cls-6{fill:#ef534a;}.cls-2{font-family:Montserrat-SemiBold, Montserrat;font-weight:600;letter-spacing:-0.02em;}.cls-3{letter-spacing:0em;}.cls-4{font-family:Montserrat-ExtraBoldItalic, Montserrat;font-weight:800;font-style:italic;}.cls-5{letter-spacing:-0.01em;}</style></defs><title>THEBUNDPROJECT-NEXOS2022-FONDOBLANCO ID</title><text class="cls-1" transform="translate(33.25 129.71)">Generación</text><text class="cls-2" transform="translate(239.05 129.71)">D<tspan class="cls-3" x="27.89" y="0">.I </tspan></text><text class="cls-4" transform="translate(295.57 130.19)">2<tspan class="cls-5" x="20.7" y="0">0</tspan><tspan x="44.13" y="0">22</tspan></text><rect class="cls-6" x="393.51" y="25.73" width="66.73" height="66.73"/><polygon class="cls-7" points="79.58 92.15 47.41 49.92 47.41 92.15 32.99 92.15 32.99 25.73 46.46 25.73 77.59 66.63 77.59 25.73 92.01 25.73 92.01 92.15 79.58 92.15"/><polygon class="cls-7" points="107.95 92.15 107.95 25.73 157.96 25.73 157.96 38.73 122.38 38.73 122.38 52.2 153.69 52.2 153.69 65.2 122.38 65.2 122.38 79.15 158.43 79.15 158.43 92.15 107.95 92.15"/><path class="cls-7" d="M306,71.13a33.92,33.92,0,0,1-18.55,18.32,38.51,38.51,0,0,1-28.33,0A35.37,35.37,0,0,1,248,82.14a32.66,32.66,0,0,1-7.3-10.82A34,34,0,0,1,238.05,58V57.8a33.57,33.57,0,0,1,2.65-13.33,34.6,34.6,0,0,1,7.36-10.91,34.13,34.13,0,0,1,11.2-7.4,38.35,38.35,0,0,1,28.32,0,35.07,35.07,0,0,1,11.15,7.3A32.79,32.79,0,0,1,306,44.28a34.07,34.07,0,0,1,2.61,13.33v.19A33.54,33.54,0,0,1,306,71.13M293.37,57.8a22.18,22.18,0,0,0-1.47-8.07,20.06,20.06,0,0,0-4.18-6.64,19.82,19.82,0,0,0-6.4-4.5,19.46,19.46,0,0,0-8.07-1.67,19.77,19.77,0,0,0-8.11,1.62A18.4,18.4,0,0,0,258.88,43a21,21,0,0,0-4.08,6.59,21.57,21.57,0,0,0-1.48,8v.19a21.94,21.94,0,0,0,1.48,8.07A20,20,0,0,0,265.33,77a19.47,19.47,0,0,0,8.11,1.66,19.92,19.92,0,0,0,8.07-1.62,18.31,18.31,0,0,0,6.31-4.46A20.88,20.88,0,0,0,291.9,66a21.76,21.76,0,0,0,1.47-8Z"/><path class="cls-7" d="M367.87,81.29a18,18,0,0,1-5,6.45,22.24,22.24,0,0,1-7.65,4,33.07,33.07,0,0,1-9.85,1.38,44,44,0,0,1-14.9-2.61,39.31,39.31,0,0,1-13.28-8l8.63-10.34A43,43,0,0,0,335.17,78a24.9,24.9,0,0,0,10.48,2.19,12.72,12.72,0,0,0,7.07-1.67,5.21,5.21,0,0,0,2.52-4.6v-.19a5.72,5.72,0,0,0-.53-2.51,5.25,5.25,0,0,0-2-2,21.24,21.24,0,0,0-4.09-1.9,70.89,70.89,0,0,0-6.81-2,83.26,83.26,0,0,1-9.13-2.75,26.26,26.26,0,0,1-6.95-3.75,15.17,15.17,0,0,1-4.42-5.55A19.26,19.26,0,0,1,319.75,45V44.8a19.14,19.14,0,0,1,1.7-8.21,18.61,18.61,0,0,1,4.76-6.31,21.41,21.41,0,0,1,7.31-4.08,29.44,29.44,0,0,1,9.38-1.42A39.87,39.87,0,0,1,356.33,27a39.17,39.17,0,0,1,11.24,6.26l-7.59,11a48.14,48.14,0,0,0-8.73-4.79,22.28,22.28,0,0,0-8.54-1.76c-2.84,0-5,.56-6.4,1.66a5,5,0,0,0-2.14,4.13v.19a6,6,0,0,0,.62,2.8A5.66,5.66,0,0,0,337,48.6a21.28,21.28,0,0,0,4.42,1.8q2.81.85,7.09,2a68.05,68.05,0,0,1,9,3,25.25,25.25,0,0,1,6.66,4,15.22,15.22,0,0,1,4.09,5.45,18.53,18.53,0,0,1,1.38,7.5v.19a20.65,20.65,0,0,1-1.79,8.78"/><polygon class="cls-6" points="191.61 36.66 184.53 25.73 167.45 25.73 182.86 48.38 191.61 36.66"/><polygon class="cls-7" points="206.92 58.18 229.13 25.73 212.52 25.73 198.48 47.27 198.46 47.24 186.66 62.74 166.5 92.15 183.11 92.15 198.1 69.38 213 92.15 230.08 92.15 206.92 58.18"/><polygon class="cls-7" points="422.05 41.69 416.92 33.78 404.57 33.78 415.71 50.16 422.05 41.69"/><polygon class="cls-7" points="433.12 57.25 449.18 33.78 437.17 33.78 427.01 49.36 427 49.34 418.46 60.55 403.89 81.82 415.89 81.82 426.74 65.35 437.51 81.82 449.86 81.82 433.12 57.25"/></svg>