<svg id="Capa_1" data-name="Capa 1" xmlns="http://www.w3.org/2000/svg" viewBox="0 0 501 137"><defs><style>.cls-1{fill:#15150e;}.cls-2{fill:#dda700;}</style></defs><title>THEBUNDPROJECT-NEXOS2022-LOGOPRINCIPAL</title><path class="cls-1" d="M302.25,40.53a18.84,18.84,0,0,0-6.27-3.2,27.1,27.1,0,0,0-7.93-1.1H268.33V91l8.33-5.58v-16h10.48a29,29,0,0,0,7.79-1,19.87,19.87,0,0,0,6.58-3.14,15.86,15.86,0,0,0,4.57-5.3,15.54,15.54,0,0,0,1.7-7.38,16.22,16.22,0,0,0-1.42-6.86,14.25,14.25,0,0,0-4.11-5.21M287.39,61.81H276.66V43.93h11c3.66,0,6.6.78,8.75,2.33a7.45,7.45,0,0,1,3,6.54,7.79,7.79,0,0,1-3.13,6.45,11.71,11.71,0,0,1-3.83,1.88,18,18,0,0,1-5.1.68"/><path class="cls-1" d="M333.59,48l-1.37,0a17.25,17.25,0,0,0-5.26.66,15.75,15.75,0,0,0-4.52,2.18,17.54,17.54,0,0,0-3.61,3.33V47.9h-8.19V86.48h8.19V70.8a18.3,18.3,0,0,1,1-6.39,13.08,13.08,0,0,1,2.77-4.52,11.39,11.39,0,0,1,4.08-2.69,14.19,14.19,0,0,1,5.06-.91h1.82Z"/><path class="cls-1" d="M371.42,74.81A19,19,0,0,0,373,67.24a19.18,19.18,0,0,0-1.51-7.53,19,19,0,0,0-4.23-6.2,20.31,20.31,0,0,0-6.42-4.18,21.91,21.91,0,0,0-16.19,0,20.24,20.24,0,0,0-6.42,4.22A19.12,19.12,0,0,0,334,59.82a19.33,19.33,0,0,0-1.51,7.56A19.13,19.13,0,0,0,338.2,81.1a20.38,20.38,0,0,0,14.41,5.74,21,21,0,0,0,8.09-1.55,20,20,0,0,0,6.46-4.23,19.48,19.48,0,0,0,4.26-6.25ZM348,78.38a12.22,12.22,0,0,1-3.8-2.58A12,12,0,0,1,341.7,72a12.6,12.6,0,0,1-.91-4.76,12.76,12.76,0,0,1,.88-4.74,12.39,12.39,0,0,1,2.42-3.85,10.74,10.74,0,0,1,3.68-2.55,12.42,12.42,0,0,1,4.84-.92,11.86,11.86,0,0,1,4.76,1,12.26,12.26,0,0,1,3.82,2.62,11.84,11.84,0,0,1,2.54,3.86,12.6,12.6,0,0,1,.91,4.76,12.76,12.76,0,0,1-.88,4.74,11.58,11.58,0,0,1-2.44,3.8,11.29,11.29,0,0,1-3.73,2.53,12.73,12.73,0,0,1-9.59,0"/><rect class="cls-1" x="375.69" y="36.23" width="8.18" height="7.71"/><path class="cls-1" d="M418.71,53.63a17,17,0,0,0-5.79-4.28,18.71,18.71,0,0,0-21.19,4.14,19.13,19.13,0,0,0-3.88,6.23,20.59,20.59,0,0,0-1.39,7.59A20,20,0,0,0,388,75.25a18.71,18.71,0,0,0,10.44,10.18,22.13,22.13,0,0,0,16.82-.52,23.41,23.41,0,0,0,6.62-5l1-1.06-5.44-4.68-.92.91a17.65,17.65,0,0,1-4.57,3.3,13.11,13.11,0,0,1-5.85,1.2,12.09,12.09,0,0,1-4.07-.7,10.82,10.82,0,0,1-3.47-2A10.61,10.61,0,0,1,396,73.55h0a12.15,12.15,0,0,1-1-3H423.2l.18-1.2a6.88,6.88,0,0,0,.08-1.08v-.73A24.05,24.05,0,0,0,422.27,60a18.42,18.42,0,0,0-3.56-6.32M405.06,55a9.82,9.82,0,0,1,4.17.83,9.48,9.48,0,0,1,3,2.25,10.57,10.57,0,0,1,2,3.32,16.22,16.22,0,0,1,.72,2.61H395a13.32,13.32,0,0,1,.88-2.72,11.73,11.73,0,0,1,2.24-3.33,10,10,0,0,1,3.11-2.18,9.16,9.16,0,0,1,3.8-.78"/><path class="cls-1" d="M456.1,74.59A19.37,19.37,0,0,1,451.57,78a11.31,11.31,0,0,1-5.52,1.3,11.9,11.9,0,0,1-4.72-.92,11.44,11.44,0,0,1-3.75-2.57A12.13,12.13,0,0,1,435.07,72a12.6,12.6,0,0,1-.91-4.76,12.76,12.76,0,0,1,.88-4.74,12.21,12.21,0,0,1,2.44-3.84,11.25,11.25,0,0,1,8.22-3.48,10.56,10.56,0,0,1,5.53,1.34A23.35,23.35,0,0,1,455.69,60l1,1,5.52-5.62-1-1a30.76,30.76,0,0,0-2.87-2.54,18.83,18.83,0,0,0-7.62-3.55,23.23,23.23,0,0,0-5-.5,20.21,20.21,0,0,0-7.93,1.55,19.71,19.71,0,0,0-6.31,4.23,19.47,19.47,0,0,0-5.69,13.82,19,19,0,0,0,1.51,7.53,19.22,19.22,0,0,0,4.18,6.19,20.15,20.15,0,0,0,14.24,5.74A19,19,0,0,0,455,84.76a25.78,25.78,0,0,0,6.54-5.16l1-1L457,73.62Z"/><path class="cls-1" d="M489,56.09V48.72H477.53V36.43L469.34,42v6.7h-5v7.37h5V75.63a13.23,13.23,0,0,0,.87,5,9.32,9.32,0,0,0,2.52,3.59,9.88,9.88,0,0,0,3.78,2,16.37,16.37,0,0,0,4.44.59,17.06,17.06,0,0,0,3.86-.41,13.49,13.49,0,0,0,3.3-1.23l.75-.39V77.3l-2,1a11,11,0,0,1-2.32.84,11.26,11.26,0,0,1-2.32.23,5.77,5.77,0,0,1-3.56-1c-.74-.56-1.12-1.7-1.12-3.38V56.09Z"/><polygon class="cls-1" points="375.69 48.51 375.69 49.08 375.69 50.65 375.69 53.06 375.69 56.15 375.69 59.74 375.69 63.66 375.69 67.74 375.69 70.15 375.67 70.15 375.67 91.03 383.88 85.45 383.88 70.15 383.88 48.51 375.69 48.51"/><path class="cls-1" d="M254.4,52.77s0,0,0,0a18.45,18.45,0,0,0-3.31-2.55A17.13,17.13,0,0,0,247,48.44a18,18,0,0,0-5-.66,18.37,18.37,0,0,0-6.89,1.34,19,19,0,0,0-6,3.84,18.69,18.69,0,0,0-4.23,6.13,20.29,20.29,0,0,0-1.59,8.22,20.21,20.21,0,0,0,1.59,8.21,18.38,18.38,0,0,0,10.21,10,18.88,18.88,0,0,0,6.88,1.3,17.63,17.63,0,0,0,5-.66,15.92,15.92,0,0,0,4.1-1.84,18.3,18.3,0,0,0,3.3-2.69l.07-.08v5h8.19V36.23l-8.19,5.58ZM251,58.58a11.39,11.39,0,0,1,2.62,3.75,13.08,13.08,0,0,1,0,9.86A11.27,11.27,0,0,1,251,76a12.29,12.29,0,0,1-3.78,2.43,11.56,11.56,0,0,1-8.69,0A10.46,10.46,0,0,1,235,76a11.44,11.44,0,0,1-2.46-3.79,13.2,13.2,0,0,1-.91-5,13.74,13.74,0,0,1,.91-5.12,11.19,11.19,0,0,1,2.42-3.74,10.24,10.24,0,0,1,3.54-2.29,12.11,12.11,0,0,1,4.46-.81,11.11,11.11,0,0,1,4.32.87A12.13,12.13,0,0,1,251,58.58"/><rect class="cls-1" x="186.12" y="36.23" width="8.18" height="7.71"/><rect class="cls-1" x="159.84" y="36.23" width="8.18" height="7.71"/><path class="cls-1" d="M203.31,48.1a18.09,18.09,0,0,0-8.88,2.32V48.06H186V63.2c0,.38-.06.75-.06,1.13v4.76A9.17,9.17,0,0,1,177.08,78c-4.93,0-9-4.27-9-9.53V48.06h-8.4V68.44c0,9.89,7.78,17.94,17.35,17.94s17.35-8,17.35-17.94V63.8c.31-4.06,4.16-7.29,8.88-7.29,4.94,0,8.95,3.51,8.95,7.82V86.48h8.4V64.33c0-8.95-7.78-16.23-17.35-16.23"/><path class="cls-1" d="M138.68,36H128.41v7.72h10.27a5.21,5.21,0,1,1,0,10.41H117V46.89H109.3v15h29.38a12.93,12.93,0,1,0,0-25.85"/><path class="cls-1" d="M140.82,54.85H109.3V91l6.82-4.56h24.7a15.81,15.81,0,0,0,0-31.61m0,23.89H117V62.57h23.8a8.09,8.09,0,0,1,0,16.17"/><polygon class="cls-1" points="100.46 34.98 103.89 34.98 103.89 47.71 105.48 46.47 105.48 34.98 108.91 34.98 108.91 33.52 100.46 33.52 100.46 34.98"/><path class="cls-1" d="M115.85,36.8a2.69,2.69,0,0,0-1-.64,3.49,3.49,0,0,0-1.29-.23,3,3,0,0,0-1.72.45,3.91,3.91,0,0,0-.65.56V33.52h-1.56V43.76h1.56V39.4a2.24,2.24,0,0,1,.15-.84,1.72,1.72,0,0,1,.43-.65,1.92,1.92,0,0,1,.65-.42,2.17,2.17,0,0,1,.82-.14,1.79,1.79,0,0,1,1.38.51,2.09,2.09,0,0,1,.49,1.46v4.44h1.55V39.05a3.56,3.56,0,0,0-.21-1.25,2.77,2.77,0,0,0-.62-1"/><path class="cls-1" d="M124.63,38.36a3.91,3.91,0,0,0-.72-1.26,3.26,3.26,0,0,0-1.15-.85,3.89,3.89,0,0,0-3.05,0,3.65,3.65,0,0,0-1.18.83,3.83,3.83,0,0,0-.78,1.25,4.23,4.23,0,0,0-.28,1.52,4.13,4.13,0,0,0,.31,1.59,4,4,0,0,0,.85,1.24,3.65,3.65,0,0,0,1.24.79,4,4,0,0,0,1.5.29,4.07,4.07,0,0,0,1.87-.39,4.78,4.78,0,0,0,1.33-1l.14-.16-1-.86-.14.14a4.19,4.19,0,0,1-1,.69,2.87,2.87,0,0,1-1.23.25,2.45,2.45,0,0,1-.85-.15,2.21,2.21,0,0,1-.73-.42,2.3,2.3,0,0,1-.54-.69,2.26,2.26,0,0,1-.23-.72h5.77l0-.18a1.48,1.48,0,0,0,0-.21v-.15a5.15,5.15,0,0,0-.23-1.53m-1.34.87h-4.24a2.54,2.54,0,0,1,.21-.66,2.66,2.66,0,0,1,.46-.7,2.18,2.18,0,0,1,.66-.46,2.15,2.15,0,0,1,1.69,0,1.93,1.93,0,0,1,.64.48,2,2,0,0,1,.41.7,3.45,3.45,0,0,1,.17.63"/><path class="cls-2" d="M35.2,120.45V58.31H62.13c14.85,0,26.93,11.1,26.93,24.76S77,107.84,62.13,107.84h-8.4ZM41.69,64.8v43.37l10-6.83h10.4c11.27,0,20.44-8.19,20.44-18.27S73.4,64.8,62.13,64.8Z"/><path class="cls-2" d="M50,81.73H20.66V48.93H11V27.86H50a26.94,26.94,0,0,1,0,53.87m-22.8-6.5H50a20.44,20.44,0,0,0,0-40.87H17.5v8.08h9.66Z"/></svg>