<svg id="Capa_1" data-name="Capa 1" xmlns="http://www.w3.org/2000/svg" viewBox="0 0 486 156"><defs><style>.cls-1{fill:#fff;}.cls-2{fill:#f0a31f;}</style></defs><title>THEBUNDPROJECT-NEXOS2022-LOGOTBP BLANCO</title><path class="cls-1" d="M245.66,66.25l0,0a16.85,16.85,0,0,0-3.2-2.47,17.33,17.33,0,0,0-4-1.71,18.25,18.25,0,0,0-11.52.67A18,18,0,0,0,217,72.37a21.37,21.37,0,0,0,0,15.93,18.18,18.18,0,0,0,4.11,5.94,17.9,17.9,0,0,0,5.79,3.69,18.16,18.16,0,0,0,6.66,1.27,17.42,17.42,0,0,0,4.83-.64,15.42,15.42,0,0,0,4-1.79,17.89,17.89,0,0,0,3.2-2.61.46.46,0,0,1,.07-.07v4.83h7.93V50.21l-7.93,5.41Zm-3.27,5.62a10.91,10.91,0,0,1,2.53,3.64,11.79,11.79,0,0,1,.94,4.76,12.05,12.05,0,0,1-.94,4.8,10.79,10.79,0,0,1-2.53,3.66,12.1,12.1,0,0,1-3.66,2.36,11.25,11.25,0,0,1-8.42,0,10.31,10.31,0,0,1-3.48-2.32,11.35,11.35,0,0,1-2.38-3.67,12.68,12.68,0,0,1-.88-4.86,13.13,13.13,0,0,1,.88-5,10.77,10.77,0,0,1,2.34-3.63,10,10,0,0,1,3.44-2.22,11.71,11.71,0,0,1,4.31-.78,10.81,10.81,0,0,1,4.19.84,12.07,12.07,0,0,1,3.66,2.35"/><path class="cls-1" d="M292,54.38a18.4,18.4,0,0,0-6.07-3.1,26.16,26.16,0,0,0-7.68-1.07H259.15v53.11l8.07-5.41V82.41h10.16a28.45,28.45,0,0,0,7.55-1,19.36,19.36,0,0,0,6.38-3,15.2,15.2,0,0,0,4.42-5.14,15,15,0,0,0,1.65-7.15A15.61,15.61,0,0,0,296,59.43a13.72,13.72,0,0,0-4-5M277.62,75h-10.4V57.68h10.67a14.41,14.41,0,0,1,8.49,2.25,7.25,7.25,0,0,1,2.93,6.35,7.83,7.83,0,0,1-.78,3.53,7.67,7.67,0,0,1-2.26,2.71,11.24,11.24,0,0,1-3.7,1.83,17.7,17.7,0,0,1-4.95.66"/><path class="cls-1" d="M322.39,61.57l-1.32,0a16.48,16.48,0,0,0-5.1.64,15.4,15.4,0,0,0-4.38,2.1,17.07,17.07,0,0,0-3.5,3.24v-6h-7.93V98.92h7.93V83.72a17.8,17.8,0,0,1,1-6.2,12.56,12.56,0,0,1,2.68-4.37,11,11,0,0,1,4-2.61,13.56,13.56,0,0,1,4.9-.88h1.76Z"/><path class="cls-1" d="M359.05,87.61a18.37,18.37,0,0,0,1.51-7.34,18.59,18.59,0,0,0-1.47-7.3,18.31,18.31,0,0,0-4.1-6,19.54,19.54,0,0,0-6.22-4.06,21.24,21.24,0,0,0-15.68,0A19.49,19.49,0,0,0,326.86,67a18.52,18.52,0,0,0-4.09,6.07,18.81,18.81,0,0,0-1.47,7.33,18.56,18.56,0,0,0,1.47,7.3,18.31,18.31,0,0,0,4.1,6,19.86,19.86,0,0,0,6.18,4.06,20.09,20.09,0,0,0,7.78,1.5,20.39,20.39,0,0,0,7.84-1.5,19.27,19.27,0,0,0,6.26-4.1,18.78,18.78,0,0,0,4.12-6Zm-22.69,3.45a11.47,11.47,0,0,1-3.68-2.5,11.25,11.25,0,0,1-2.42-3.71,12,12,0,0,1-.88-4.61,12.17,12.17,0,0,1,.85-4.59,11.78,11.78,0,0,1,2.34-3.74,10.31,10.31,0,0,1,3.57-2.46,11.88,11.88,0,0,1,4.69-.9,11.45,11.45,0,0,1,4.6.92A11.93,11.93,0,0,1,349.15,72a11.51,11.51,0,0,1,2.45,3.74,12.66,12.66,0,0,1,0,9.2,11.12,11.12,0,0,1-2.36,3.69,10.87,10.87,0,0,1-3.62,2.45,12.3,12.3,0,0,1-9.29,0"/><rect class="cls-1" x="363.19" y="50.21" width="7.93" height="7.47"/><rect class="cls-1" x="179.48" y="50.21" width="7.93" height="7.47"/><rect class="cls-1" x="154.02" y="50.21" width="7.93" height="7.47"/><path class="cls-1" d="M404.88,67.08a16.39,16.39,0,0,0-5.6-4.15,19,19,0,0,0-14.78,0,17.71,17.71,0,0,0-5.76,4A18.64,18.64,0,0,0,375,73a20.19,20.19,0,0,0-1.34,7.35,19.24,19.24,0,0,0,1.52,7.7,18.09,18.09,0,0,0,10.11,9.87,21.49,21.49,0,0,0,16.3-.51A23,23,0,0,0,408,92.51l.95-1L403.66,87l-.89.88a17.45,17.45,0,0,1-4.43,3.2,12.77,12.77,0,0,1-5.66,1.15,11.54,11.54,0,0,1-3.95-.67,10.3,10.3,0,0,1-5.82-5.13h0a10.91,10.91,0,0,1-1-2.87h27.31l.18-1.15a8.15,8.15,0,0,0,.08-1v-.72a23.25,23.25,0,0,0-1.16-7.39,17.53,17.53,0,0,0-3.45-6.12m-13.22,1.27a9.32,9.32,0,0,1,4,.82,9.18,9.18,0,0,1,2.94,2.17,10.21,10.21,0,0,1,1.89,3.22,14.33,14.33,0,0,1,.7,2.53H381.93a13.38,13.38,0,0,1,.86-2.64A11.29,11.29,0,0,1,385,71.23a9.82,9.82,0,0,1,3-2.12,9,9,0,0,1,3.69-.76"/><path class="cls-1" d="M441.12,87.39a18.69,18.69,0,0,1-4.4,3.33A11,11,0,0,1,431.38,92a11.41,11.41,0,0,1-4.58-.9,11.06,11.06,0,0,1-3.63-2.48,12,12,0,0,1-2.43-3.76,12.2,12.2,0,0,1-.88-4.61,12.37,12.37,0,0,1,.85-4.59,11.75,11.75,0,0,1,2.37-3.73,10.87,10.87,0,0,1,8-3.37,10.25,10.25,0,0,1,5.36,1.3,23.33,23.33,0,0,1,4.32,3.38l1,1,5.35-5.44-.94-1a27.57,27.57,0,0,0-2.78-2.46A19,19,0,0,0,440,63.26a19.5,19.5,0,0,0-4-1.37,22.62,22.62,0,0,0-4.84-.48,19.48,19.48,0,0,0-7.68,1.5A19.28,19.28,0,0,0,417.3,67a18.93,18.93,0,0,0-5.51,13.39,18.6,18.6,0,0,0,5.52,13.3,19.54,19.54,0,0,0,13.8,5.56,18.54,18.54,0,0,0,9-2,25.27,25.27,0,0,0,6.34-5l.93-1L442,86.46Z"/><path class="cls-1" d="M473,69.46V62.32H461.88V50.41L454,55.82v6.5h-4.88v7.14H454V88.4a12.91,12.91,0,0,0,.84,4.88,9,9,0,0,0,2.44,3.47,9.52,9.52,0,0,0,3.67,1.94,15.73,15.73,0,0,0,4.3.57,16.5,16.5,0,0,0,3.73-.39,13.6,13.6,0,0,0,3.21-1.2l.72-.38V90l-1.94.93a10.48,10.48,0,0,1-2.25.81,10.65,10.65,0,0,1-2.25.23A5.59,5.59,0,0,1,463,91c-.72-.55-1.09-1.65-1.09-3.28V69.46Z"/><polygon class="cls-1" points="363.19 62.12 363.19 62.67 363.19 64.19 363.19 66.53 363.19 69.52 363.19 73 363.19 76.8 363.19 80.75 363.19 83.09 363.17 83.09 363.17 103.32 371.13 97.91 371.13 83.09 371.13 62.12 363.19 62.12"/><path class="cls-1" d="M196.14,61.72A17.56,17.56,0,0,0,187.53,64V61.68h-8.14V76.36c0,.36-.06.72-.06,1.09v4.61a8.9,8.9,0,0,1-8.61,8.61c-4.78,0-8.67-4.14-8.67-9.23V61.68h-8.14V81.44c0,9.58,7.54,17.37,16.81,17.37S187.53,91,187.53,81.44v-4.5c.31-3.94,4-7.07,8.61-7.07,4.78,0,8.67,3.4,8.67,7.58V98.92H213V77.45c0-8.67-7.54-15.73-16.82-15.73"/><path class="cls-1" d="M133.51,50h-10v7.48h10a5,5,0,1,1,0,10.09h-21V60.54H105V75.09h28.47a12.53,12.53,0,0,0,0-25.06"/><polygon class="cls-1" points="96.47 49 99.8 49 99.8 61.34 101.33 60.14 101.33 49 104.66 49 104.66 47.59 96.47 47.59 96.47 49"/><path class="cls-1" d="M111.39,50.77a2.57,2.57,0,0,0-1-.62,3.33,3.33,0,0,0-1.26-.22,2.93,2.93,0,0,0-1.66.44,3.22,3.22,0,0,0-.63.53V47.59h-1.51v9.93h1.51V53.29a2.39,2.39,0,0,1,.14-.82,1.93,1.93,0,0,1,.42-.63,1.79,1.79,0,0,1,.63-.4,2.26,2.26,0,0,1,.79-.14,1.73,1.73,0,0,1,1.34.5,2,2,0,0,1,.47,1.41v4.31h1.51V53a3.57,3.57,0,0,0-.2-1.21,2.74,2.74,0,0,0-.6-1"/><path class="cls-1" d="M119.89,52.28a3.65,3.65,0,0,0-.69-1.22,3.31,3.31,0,0,0-1.12-.83,3.78,3.78,0,0,0-3,0A3.45,3.45,0,0,0,114,51a3.68,3.68,0,0,0-.75,1.21,4,4,0,0,0-.27,1.47,3.93,3.93,0,0,0,.3,1.55,3.72,3.72,0,0,0,.82,1.19,3.55,3.55,0,0,0,1.2.78,4,4,0,0,0,1.46.27,4,4,0,0,0,1.8-.37,4.59,4.59,0,0,0,1.29-1L120,56l-1-.83-.14.13A3.34,3.34,0,0,1,118,56a2.64,2.64,0,0,1-1.18.24,2.3,2.3,0,0,1-.83-.14,2.2,2.2,0,0,1-.71-.41,2.16,2.16,0,0,1-.52-.67,2.07,2.07,0,0,1-.22-.69h5.59l0-.17a.78.78,0,0,0,0-.21v-.14a4.89,4.89,0,0,0-.23-1.49m-1.3.85h-4.1a2.65,2.65,0,0,1,.65-1.32,2.06,2.06,0,0,1,.64-.45,2.09,2.09,0,0,1,1.63,0,1.83,1.83,0,0,1,.62.46,2.11,2.11,0,0,1,.4.68,2.69,2.69,0,0,1,.16.62"/><path class="cls-1" d="M135.58,68.26H105v35.06l6.6-4.42h23.94a15.32,15.32,0,0,0,0-30.64m0,23.16H112.52V75.74h23.06a7.84,7.84,0,0,1,0,15.68"/><path class="cls-2" d="M47.53,84H19.14V52.23H9.78V31.81H47.53a26.1,26.1,0,0,1,0,52.2M25.44,77.72H47.53a19.81,19.81,0,0,0,0-39.61H16.07v7.82h9.37Z"/><path class="cls-2" d="M33.23,121.53V61.31h26.1c14.39,0,26.09,10.77,26.09,24s-11.7,24-26.09,24H51.19Zm6.29-53.92v42L49.25,103H59.33c10.92,0,19.8-7.94,19.8-17.71s-8.88-17.7-19.8-17.7Z"/></svg>