<svg id="Capa_1" data-name="Capa 1" xmlns="http://www.w3.org/2000/svg" xmlns:xlink="http://www.w3.org/1999/xlink" viewBox="0 0 1920 1482"><defs><style>.cls-1{fill:none;}.cls-2{fill:#38338f;}.cls-3{fill:#ef534a;}.cls-4{fill:#232963;}.cls-5{clip-path:url(#clip-path);}</style><clipPath id="clip-path"><rect class="cls-1" x="1281" y="541" width="640" height="941"/></clipPath></defs><title>THEBUNDPROJECT-NEXOS2022-FONDO PREVISUALIZACIÓN PORTAFOLIOS_Mesa de trabajo 1</title><rect class="cls-2" width="1921.24" height="1349.3"/><path class="cls-3" d="M286.73,302.58l68.76,68.77V356l-69.62,69.61a11.06,11.06,0,0,0,0,15.39q34.61,34.59,69.19,69.19V494.77l-68.33,68.34a11,11,0,0,0,0,15.38l67.91,67.91V631l-69.2,69.19a11.06,11.06,0,0,0,0,15.39l67.9,67.89V768.11L285.44,836c-9.92,9.91,5.46,25.29,15.39,15.38l67.9-67.91a11,11,0,0,0,0-15.38l-67.9-67.9V715.6L370,646.4A11,11,0,0,0,370,631l-67.91-67.91v15.38l68.34-68.33a11.06,11.06,0,0,0,0-15.39l-69.19-69.19V441l69.62-69.62a11,11,0,0,0,0-15.38L302.11,287.2c-9.91-9.91-25.3,5.47-15.38,15.38"/><path class="cls-3" d="M178.43,302.58l68.76,68.77V356l-69.62,69.61a11,11,0,0,0,0,15.39l69.19,69.19V494.77l-68.33,68.34a11,11,0,0,0,0,15.38l67.91,67.91V631l-69.2,69.19a11,11,0,0,0,0,15.39L245,783.49V768.11L177.14,836c-9.92,9.91,5.46,25.29,15.38,15.38q34-33.95,67.9-67.91a11,11,0,0,0,0-15.38l-67.9-67.9V715.6l69.2-69.2a11,11,0,0,0,0-15.38l-67.91-67.91v15.38l68.33-68.33a11,11,0,0,0,0-15.39L193,425.58V441l69.62-69.62a11,11,0,0,0,0-15.38L193.81,287.2c-9.92-9.91-25.3,5.47-15.38,15.38"/><path class="cls-3" d="M70.12,302.58l68.77,68.77V356L69.27,425.58a11,11,0,0,0,0,15.39l69.18,69.19V494.77L70.12,563.11a11,11,0,0,0,0,15.38L138,646.4V631l-69.2,69.19a11.06,11.06,0,0,0,0,15.39l67.91,67.89V768.11L68.83,836c-9.91,9.91,5.47,25.29,15.38,15.38q34-33.95,67.91-67.91a11,11,0,0,0,0-15.38l-67.9-67.9V715.6l69.19-69.2a11,11,0,0,0,0-15.38l-67.9-67.91v15.38l68.33-68.33a11,11,0,0,0,0-15.39L84.65,425.58V441l69.62-69.62a11,11,0,0,0,0-15.38L85.51,287.2c-9.92-9.91-25.31,5.47-15.39,15.38"/><path class="cls-3" d="M286.73,851l68.76,68.76V904.36q-34.8,34.82-69.62,69.62a11,11,0,0,0,0,15.38l69.19,69.2v-15.39l-68.33,68.33a11,11,0,0,0,0,15.39l67.91,67.91v-15.38l-69.2,69.19a11,11,0,0,0,0,15.38l67.9,67.9v-15.38l-67.9,67.91c-9.92,9.91,5.46,25.29,15.39,15.38l67.9-67.91a11,11,0,0,0,0-15.38l-67.9-67.9V1264L370,1194.8a11,11,0,0,0,0-15.38l-67.91-67.92v15.39l68.34-68.33a11.06,11.06,0,0,0,0-15.39L301.26,974v15.38l69.62-69.62a11,11,0,0,0,0-15.38L302.11,835.6c-9.91-9.92-25.3,5.46-15.38,15.38"/><path class="cls-3" d="M178.43,851l68.76,68.76V904.36L177.57,974a11,11,0,0,0,0,15.38l69.19,69.2v-15.39l-68.33,68.33a11,11,0,0,0,0,15.39l67.91,67.91v-15.38l-69.2,69.19a11,11,0,0,0,0,15.38l67.9,67.9v-15.38l-67.9,67.91c-9.92,9.91,5.46,25.29,15.38,15.38l67.9-67.91a11,11,0,0,0,0-15.38l-67.9-67.9V1264l69.2-69.19a11,11,0,0,0,0-15.38l-67.91-67.92v15.39q34.16-34.17,68.33-68.33a11,11,0,0,0,0-15.39L193,974v15.38l69.62-69.62a11,11,0,0,0,0-15.38L193.81,835.6c-9.92-9.92-25.3,5.46-15.38,15.38"/><path class="cls-3" d="M70.12,851l68.77,68.76V904.36L69.27,974a11,11,0,0,0,0,15.38l69.18,69.2v-15.39L70.12,1111.5a11.06,11.06,0,0,0,0,15.39L138,1194.8v-15.38l-69.2,69.19a11,11,0,0,0,0,15.38l67.91,67.9v-15.38l-67.91,67.91c-9.91,9.91,5.47,25.29,15.38,15.38l67.91-67.91a11,11,0,0,0,0-15.38l-67.9-67.9V1264l69.19-69.19a11,11,0,0,0,0-15.38l-67.9-67.92v15.39q34.15-34.17,68.33-68.33a11,11,0,0,0,0-15.39Q119.25,1008.58,84.65,974v15.38l69.62-69.62a11,11,0,0,0,0-15.38L85.51,835.6c-9.92-9.92-25.31,5.46-15.39,15.38"/><rect class="cls-3" x="1829.27" y="76.89" width="52.26" height="49.21"/><rect class="cls-3" x="1829.27" y="194.54" width="52.26" height="49.21"/><rect class="cls-3" x="1829.27" y="312.19" width="52.26" height="49.21"/><path class="cls-3" d="M1800.88,244.7h-54.16V193.59h54.16Zm-52.26-1.9H1799V195.49h-50.36Z"/><path class="cls-3" d="M1800.88,362.35h-54.16V311.24h54.16Zm-52.26-1.9H1799V313.14h-50.36Z"/><path class="cls-3" d="M1800.88,480h-54.16V428.89h54.16Zm-52.26-1.9H1799V430.79h-50.36Z"/><rect class="cls-4" x="-1" y="1349.3" width="1922.24" height="133"/><g class="cls-5"><path class="cls-3" d="M1904.82,580.12v55.75l-1.62-.08c-.49,0-1,0-1.46,0-173.86,0-315.31,141.44-315.31,315.3s141.45,315.31,315.31,315.31c.49,0,1,0,1.45,0l1.63-.09V1322l-1.46.07c-.55,0-1.07,0-1.62,0-204.61,0-371.07-166.46-371.07-371.07S1697.13,580,1901.74,580c.55,0,1.07,0,1.63,0Zm-3.08,52.56v-49.6c-202.91,0-368,165.08-368,368s165.08,368,368,368v-49.6c-175.56,0-318.39-142.83-318.39-318.39S1726.18,632.68,1901.74,632.68Z"/><path class="cls-3" d="M1904.82,692.35v56.51l-1.63-.1c-.47,0-1,0-1.45,0-111.57,0-202.34,90.77-202.34,202.34s90.77,202.33,202.34,202.33c.49,0,1,0,1.45,0l1.63-.1v56.51l-1.44.09c-.56,0-1.08,0-1.64,0-142.72,0-258.84-116.11-258.84-258.83S1759,692.23,1901.74,692.23c.55,0,1.07,0,1.63,0Zm-3.08,53.3V695.31c-141,0-255.76,114.73-255.76,255.76s114.73,255.75,255.76,255.75v-50.34c-113.27,0-205.42-92.15-205.42-205.41S1788.47,745.65,1901.74,745.65Z"/><path class="cls-3" d="M1904.82,634.86v58.9l-1.65-.12c-.48,0-.94,0-1.43,0-142,0-257.45,115.5-257.45,257.46s115.49,257.45,257.45,257.45c.49,0,1,0,1.43,0l1.65-.12v58.91l-1.46.08c-.55,0-1.07,0-1.62,0-174.42,0-316.32-141.9-316.32-316.32s141.9-316.32,316.32-316.32c.55,0,1.07,0,1.63,0Zm-3.08,55.67v-52.7c-172.72,0-313.24,140.51-313.24,313.24S1729,1264.3,1901.74,1264.3v-52.7c-143.66,0-260.53-116.88-260.53-260.53S1758.08,690.53,1901.74,690.53Z"/><path class="cls-3" d="M1904.82,797.74v68.19l-1.62-.08c-.49,0-1,0-1.46,0a85.24,85.24,0,0,0,0,170.48c.5,0,1,0,1.46,0l1.62-.08v68.19l-1.45.09c-.56,0-1.08,0-1.63,0-84.61,0-153.45-68.83-153.45-153.44s68.84-153.45,153.45-153.45c.55,0,1.07,0,1.63,0Zm-3.08,65v-62c-82.91,0-150.37,67.45-150.37,150.37s67.46,150.36,150.37,150.36v-62a88.33,88.33,0,0,1,0-176.65Z"/><path class="cls-3" d="M1904.82,747.09v52.72l-1.64-.1c-.49,0-1,0-1.44,0-83.47,0-151.38,67.91-151.38,151.39s67.91,151.38,151.38,151.38c.49,0,1,0,1.45,0l1.63-.09V1155l-1.44.09c-.56,0-1.08,0-1.64,0-112.54,0-204.09-91.56-204.09-204.09S1789.2,747,1901.74,747c.55,0,1.07,0,1.63,0Zm-3.08,49.51V750.05c-110.84,0-201,90.18-201,201s90.17,201,201,201v-46.55c-85.17,0-154.46-69.29-154.46-154.46S1816.57,796.6,1901.74,796.6Z"/><path class="cls-3" d="M1912.08,880.5a71.31,71.31,0,1,1-71.31,71.3,71.3,71.3,0,0,1,71.31-71.3"/></g></svg>